<svg width="100" height="100" viewBox="0 0 100 100" fill="none" xmlns="http://www.w3.org/2000/svg">
  <rect width="100" height="100" rx="8" fill="#0077B5"/>
  <path d="M30 40H20V80H30V40Z" fill="white"/>
  <path d="M25 35C28.3137 35 31 32.3137 31 29C31 25.6863 28.3137 23 25 23C21.6863 23 19 25.6863 19 29C19 32.3137 21.6863 35 25 35Z" fill="white"/>
  <path d="M55 80H45V55C45 51.7 45 48 40 48C35 48 35 51.7 35 55V80H25V40H35V45C36.7 42 40.1 40 45 40C55 40 55 45 55 55V80Z" fill="white"/>
  <path d="M75 80H65V55C65 51.7 65 48 60 48C55 48 55 51.7 55 55V80H45V40H55V45C56.7 42 60.1 40 65 40C75 40 75 45 75 55V80Z" fill="white"/>
</svg> 